<svg width="76" height="74" xmlns="http://www.w3.org/2000/svg"><g fill="none"><g opacity=".6" fill="#000"><path d="M60 0c-8.837 0-16 7.163-16 16s7.163 16 16 16 16-7.163 16-16S68.837 0 60 0zm0 31c-8.271 0-15-6.729-15-15S51.729 1 60 1s15 6.729 15 15-6.729 15-15 15z"/><path d="M67.062 15.478h-.013l-6.095-6.095-.707.707 5.388 5.388h-14.04v1h14.149l-5.497 5.497.707.707 6.65-6.649-.542-.542z"/><path d="M48.318 5.06c-4.893 5.097-5.731 13.092-1.986 19.088 3.225 5.164 9.297 8.06 15.336 7.517 8.098-.728 14.157-7.528 14.332-15.569C75.696 2.187 58.157-5.19 48.318 5.06zm13.407 26.086c-8.938 1.173-16.785-6.194-16.79-15.05C44.931 8.514 50.68 1.797 58.24.805c9.065-1.19 16.596 6.208 16.79 15.051-.167 7.592-5.633 14.284-13.305 15.29z"/><path d="M61.009 9.906c-.186-.186-1.133-.261-.887-.015l2.886 2.885c.374.374 2.305 1.95 2.968 2.754H51.623c-1.354 0-.479.848.398.848h13.884c-.697.785-2.412 2.189-2.739 2.516l-3.056 3.055c-.198.198.701.546.909.338l6.112-6.11c.048-.048.034-.116-.011-.162l-6.111-6.109z"/><path d="M60 0c-8.837 0-16 7.163-16 16s7.163 16 16 16 16-7.163 16-16S68.837 0 60 0zm0 30c-7.72 0-14-6.28-14-14S52.28 2 60 2s14 6.28 14 14-6.28 14-14 14z"/><path d="M59.894 10.444l4.534 4.534H51.595v2h12.942l-4.643 4.644 1.414 1.414 7.003-7.003-7.003-7.003z"/><path d="M60 0c-8.837 0-16 7.163-16 16s7.163 16 16 16 16-7.163 16-16S68.837 0 60 0zm0 31.5c-8.547 0-15.5-6.953-15.5-15.5S51.453.5 60 .5 75.5 7.453 75.5 16 68.547 31.5 60 31.5z"/><path d="M67.062 15.844v-.116h-.117L60.777 9.56l-.353.354 5.814 5.814H51.595v.5h14.753l-5.924 5.924.353.354 6.278-6.278h.007v-.007l.188-.188zM16 0c8.837 0 16 7.163 16 16s-7.163 16-16 16S0 24.837 0 16 7.163 0 16 0zm0 31c8.271 0 15-6.729 15-15S24.271 1 16 1 1 7.729 1 16s6.729 15 15 15z"/><path d="M8.938 15.478h.013l6.095-6.095.707.707-5.388 5.388h14.04v1H10.256l5.497 5.497-.707.707-6.65-6.649.542-.542z"/><path d="M27.682 5.06c4.893 5.097 5.731 13.092 1.986 19.088-3.225 5.164-9.297 8.06-15.336 7.517C6.234 30.937.175 24.137 0 16.096.304 2.187 17.843-5.19 27.682 5.06zM14.275 31.146c8.938 1.173 16.785-6.194 16.79-15.05C31.069 8.514 25.32 1.797 17.76.805 8.695-.385 1.164 7.013.97 15.856c.167 7.592 5.633 14.284 13.305 15.29z"/><path d="M14.991 9.906c.186-.186 1.133-.261.887-.015l-2.886 2.885c-.374.374-2.305 1.95-2.968 2.754h14.353c1.354 0 .479.848-.398.848H10.095c.697.785 2.412 2.189 2.739 2.516l3.056 3.055c.198.198-.701.546-.909.338l-6.112-6.11c-.048-.048-.034-.116.011-.162l6.111-6.109z"/><path d="M16 0c8.837 0 16 7.163 16 16s-7.163 16-16 16S0 24.837 0 16 7.163 0 16 0zm0 30c7.72 0 14-6.28 14-14S23.72 2 16 2 2 8.28 2 16s6.28 14 14 14z"/><path d="M16.106 10.444l-4.534 4.534h12.833v2H11.463l4.643 4.644-1.414 1.414-7.003-7.003 7.003-7.003z"/><path d="M16 0c8.837 0 16 7.163 16 16s-7.163 16-16 16S0 24.837 0 16 7.163 0 16 0zm0 31.5c8.547 0 15.5-6.953 15.5-15.5S24.547.5 16 .5.5 7.453.5 16 7.453 31.5 16 31.5z"/><path d="M8.938 15.844v-.116h.117l6.168-6.168.353.354-5.814 5.814h14.643v.5H9.652l5.924 5.924-.353.354-6.278-6.278h-.007v-.007l-.188-.188z"/></g><g fill="#E6CB69"><path d="M60 42c-8.837 0-16 7.163-16 16s7.163 16 16 16 16-7.163 16-16-7.163-16-16-16zm0 31c-8.271 0-15-6.729-15-15s6.729-15 15-15 15 6.729 15 15-6.729 15-15 15z"/><path d="M67.062 57.478h-.013l-6.095-6.095-.707.707 5.388 5.388h-14.04v1h14.149l-5.497 5.497.707.707 6.65-6.649-.542-.542z"/><path d="M48.318 47.06c-4.893 5.097-5.731 13.092-1.986 19.088 3.225 5.164 9.297 8.06 15.336 7.517 8.098-.728 14.157-7.528 14.332-15.569-.304-13.909-17.843-21.286-27.682-11.036zm13.407 26.086c-8.938 1.173-16.785-6.194-16.79-15.05-.004-7.582 5.745-14.299 13.305-15.291 9.065-1.19 16.596 6.208 16.79 15.051-.167 7.592-5.633 14.284-13.305 15.29z"/><path d="M61.009 51.906c-.186-.186-1.133-.261-.887-.015l2.886 2.885c.374.374 2.305 1.95 2.968 2.754H51.623c-1.354 0-.479.848.398.848h13.884c-.697.785-2.412 2.189-2.739 2.516l-3.056 3.055c-.198.198.701.546.909.338l6.112-6.11c.048-.048.034-.116-.011-.162l-6.111-6.109z"/><path d="M60 42c-8.837 0-16 7.163-16 16s7.163 16 16 16 16-7.163 16-16-7.163-16-16-16zm0 30c-7.72 0-14-6.28-14-14s6.28-14 14-14 14 6.28 14 14-6.28 14-14 14z"/><path d="M59.894 52.444l4.534 4.534H51.595v2h12.942l-4.643 4.644 1.414 1.414 7.003-7.003-7.003-7.003z"/><path d="M60 42c-8.837 0-16 7.163-16 16s7.163 16 16 16 16-7.163 16-16-7.163-16-16-16zm0 31.5c-8.547 0-15.5-6.953-15.5-15.5S51.453 42.5 60 42.5 75.5 49.453 75.5 58 68.547 73.5 60 73.5z"/><path d="M67.062 57.844v-.116h-.117l-6.168-6.168-.353.354 5.814 5.814H51.595v.5h14.753l-5.924 5.924.353.354 6.278-6.278h.007v-.007l.188-.188zM16 42c8.837 0 16 7.163 16 16s-7.163 16-16 16S0 66.837 0 58s7.163-16 16-16zm0 31c8.271 0 15-6.729 15-15s-6.729-15-15-15S1 49.729 1 58s6.729 15 15 15z"/><path d="M8.938 57.478h.013l6.095-6.095.707.707-5.388 5.388h14.04v1H10.256l5.497 5.497-.707.707-6.65-6.649.542-.542z"/><path d="M27.682 47.06c4.893 5.097 5.731 13.092 1.986 19.088-3.225 5.164-9.297 8.06-15.336 7.517C6.234 72.937.175 66.137 0 58.096.304 44.187 17.843 36.81 27.682 47.06zM14.275 73.146c8.938 1.173 16.785-6.194 16.79-15.05.004-7.582-5.745-14.299-13.305-15.291C8.695 41.615 1.164 49.013.97 57.856c.167 7.592 5.633 14.284 13.305 15.29z"/><path d="M14.991 51.906c.186-.186 1.133-.261.887-.015l-2.886 2.885c-.374.374-2.305 1.95-2.968 2.754h14.353c1.354 0 .479.848-.398.848H10.095c.697.785 2.412 2.189 2.739 2.516l3.056 3.055c.198.198-.701.546-.909.338l-6.112-6.11c-.048-.048-.034-.116.011-.162l6.111-6.109z"/><path d="M16 42c8.837 0 16 7.163 16 16s-7.163 16-16 16S0 66.837 0 58s7.163-16 16-16zm0 30c7.72 0 14-6.28 14-14s-6.28-14-14-14S2 50.28 2 58s6.28 14 14 14z"/><path d="M16.106 52.444l-4.534 4.534h12.833v2H11.463l4.643 4.644-1.414 1.414-7.003-7.003 7.003-7.003z"/><path d="M16 42c8.837 0 16 7.163 16 16s-7.163 16-16 16S0 66.837 0 58s7.163-16 16-16zm0 31.5c8.547 0 15.5-6.953 15.5-15.5S24.547 42.5 16 42.5.5 49.453.5 58 7.453 73.5 16 73.5z"/><path d="M8.938 57.844v-.116h.117l6.168-6.168.353.354-5.814 5.814h14.643v.5H9.652l5.924 5.924-.353.354-6.278-6.278h-.007v-.007l-.188-.188z"/></g></g></svg>