<svg width="110" height="20" xmlns="http://www.w3.org/2000/svg"><g fill="#E6CB69"><path d="M7.697 0C3.497 0 .081 3.417.081 7.617c0 3.001 1.256 6.037 3.634 8.779 1.775 2.048 3.534 3.208 3.609 3.257a.682.682 0 0 0 .747 0c.074-.049 1.834-1.209 3.609-3.257 2.377-2.742 3.634-5.778 3.634-8.78 0-4.2-3.417-7.616-7.617-7.616zm0 18.243c-1.4-1.044-6.25-5.06-6.25-10.626a6.258 6.258 0 0 1 6.25-6.252 6.258 6.258 0 0 1 6.251 6.252c0 5.565-4.85 9.582-6.251 10.626z"/><path d="M7.697 4.593a3.026 3.026 0 0 0-3.022 3.023 3.026 3.026 0 0 0 3.022 3.022 3.026 3.026 0 0 0 3.023-3.022 3.026 3.026 0 0 0-3.023-3.023zm0 4.68A1.659 1.659 0 0 1 6.04 7.616a1.66 1.66 0 0 1 1.657-1.658 1.66 1.66 0 0 1 1.658 1.658 1.66 1.66 0 0 1-1.658 1.657zM39.966 0C34.47 0 30 4.47 30 9.965c0 5.496 4.47 9.966 9.966 9.966 5.495 0 9.965-4.47 9.965-9.966C49.931 4.47 45.461 0 39.966 0zm0 18.503c-4.708 0-8.537-3.83-8.537-8.538 0-4.707 3.83-8.536 8.537-8.536 4.707 0 8.537 3.83 8.537 8.536 0 4.708-3.83 8.538-8.537 8.538z"/><path d="M45.09 9.799h-4.683v-5.12a.714.714 0 1 0-1.429 0v5.834c0 .394.32.714.714.714h5.398a.714.714 0 1 0 0-1.428zm31.792-7.184A8.87 8.87 0 0 0 70.568 0a.708.708 0 1 0 0 1.415c2.007 0 3.894.782 5.313 2.2a7.465 7.465 0 0 1 2.201 5.315.708.708 0 0 0 1.415 0 8.87 8.87 0 0 0-2.615-6.315z"/><path d="M73.971 8.93a.707.707 0 1 0 1.415 0 4.825 4.825 0 0 0-4.818-4.819.708.708 0 0 0 0 1.415A3.408 3.408 0 0 1 73.97 8.93zm-1.565 3.607c-1.079-.055-1.628.747-1.892 1.132a.708.708 0 1 0 1.168.799c.312-.455.453-.527.644-.518.612.072 3.024 1.84 3.266 2.392a.732.732 0 0 1-.007.516c-.253.752-.672 1.28-1.212 1.528-.513.235-1.142.213-1.819-.062-2.526-1.03-4.733-2.466-6.56-4.27l-.002-.003c-1.8-1.824-3.234-4.029-4.262-6.55-.276-.678-.297-1.307-.062-1.82.248-.54.776-.96 1.527-1.212a.73.73 0 0 1 .515-.007c.554.242 2.322 2.654 2.393 3.26.01.198-.062.339-.517.65a.707.707 0 1 0 .798 1.168c.386-.263 1.188-.811 1.132-1.894-.061-1.13-2.26-4.123-3.31-4.51a2.14 2.14 0 0 0-1.462-.008c-1.131.38-1.948 1.06-2.362 1.963-.402.877-.39 1.894.037 2.943 1.1 2.699 2.64 5.06 4.575 7.02a.51.51 0 0 0 .014.014c1.958 1.932 4.317 3.468 7.012 4.567.54.22 1.072.33 1.58.33a3.24 3.24 0 0 0 1.362-.293c.904-.414 1.583-1.231 1.964-2.363a2.14 2.14 0 0 0-.007-1.458c-.388-1.053-3.381-3.252-4.513-3.314zm34.007-6.859l-6.451 5.685-6.453-5.685a.62.62 0 1 0-.82.93l6.863 6.046a.619.619 0 0 0 .82 0l6.861-6.046a.62.62 0 0 0-.82-.93z"/><path d="M108.063 3.044H91.86c-1.026 0-1.86.834-1.86 1.86v9.834c0 1.025.834 1.86 1.86 1.86h16.203c1.025 0 1.86-.835 1.86-1.86V4.903c0-1.025-.835-1.86-1.86-1.86zm.62 11.694a.62.62 0 0 1-.62.62H91.86a.62.62 0 0 1-.62-.62V4.903a.62.62 0 0 1 .62-.62h16.203a.62.62 0 0 1 .62.62v9.835z"/></g></svg>