<?xml version="1.0" encoding="UTF-8"?>
<svg width="110px" height="20px" viewBox="0 0 110 20" version="1.1" xmlns="http://www.w3.org/2000/svg" xmlns:xlink="http://www.w3.org/1999/xlink">
    <!-- Generator: Sketch 48.2 (47327) - http://www.bohemiancoding.com/sketch -->
    <title>Group</title>
    <desc>Created with Sketch.</desc>
    <defs></defs>
    <g id="Welcome" stroke="none" stroke-width="1" fill="none" fill-rule="evenodd">
        <g id="Group" fill="#E6CB69" fill-rule="nonzero">
            <g id="location-copy">
                <path d="M7.69704142,0 C3.49749659,0 0.0810195721,3.41693218 0.0810195721,7.61693218 C0.0810195721,10.6180246 1.33746017,13.6537096 3.7145198,16.3959035 C5.48994083,18.4440601 7.24943104,19.6044606 7.32353209,19.6528903 C7.43695949,19.7270824 7.56704597,19.7641329 7.69713245,19.7641329 C7.8271279,19.7641329 7.95721438,19.7270824 8.07073282,19.6528903 C8.14474283,19.6044606 9.90450614,18.4440601 11.6799272,16.3959945 C14.0571689,13.6537096 15.3137005,10.6180246 15.3137005,7.61693218 C15.3136095,3.41693218 11.8967683,0 7.69704142,0 Z M7.69704142,18.2430587 C6.29631315,17.1992717 1.44651798,13.1821575 1.44651798,7.61693218 C1.44651798,4.169868 4.25043241,1.36549841 7.69704142,1.36549841 C11.1439235,1.36549841 13.9481111,4.169868 13.9481111,7.61693218 C13.9481111,13.1821575 9.09786072,17.1992717 7.69704142,18.2430587 Z" id="Shape"></path>
                <path d="M7.69749659,4.59253528 C6.0306782,4.59253528 4.67464725,5.94865726 4.67464725,7.61565772 C4.67464725,9.282203 6.0306782,10.6380519 7.69749659,10.6380519 C9.36431497,10.6380519 10.7202549,9.282203 10.7202549,7.61565772 C10.7202549,5.94874829 9.36422394,4.59253528 7.69749659,4.59253528 Z M7.69749659,9.27255348 C6.78361402,9.27255348 6.04014565,8.52926718 6.04014565,7.61565772 C6.04014565,6.70159308 6.78361402,5.95803368 7.69749659,5.95803368 C8.61128812,5.95803368 9.35475649,6.70159308 9.35475649,7.61565772 C9.35475649,8.52926718 8.61128812,9.27255348 7.69749659,9.27255348 Z" id="Shape"></path>
            </g>
            <g id="clock-copy" transform="translate(30.000000, 0.000000)">
                <path d="M9.96580952,0 C4.4707619,0 0.00019047619,4.47047619 0.00019047619,9.96542857 C0.00019047619,15.4607619 4.4707619,19.9314286 9.96580952,19.9314286 C15.4607619,19.9314286 19.9312381,15.4606667 19.9312381,9.96542857 C19.9312381,4.47047619 15.4607619,0 9.96580952,0 Z M9.96580952,18.5028571 C5.25847619,18.5028571 1.4287619,14.6729524 1.4287619,9.96542857 C1.4287619,5.25819048 5.25847619,1.42857143 9.96580952,1.42857143 C14.6730476,1.42857143 18.5026667,5.25819048 18.5026667,9.96542857 C18.5026667,14.6729524 14.6730476,18.5028571 9.96580952,18.5028571 Z" id="Shape"></path>
                <path d="M15.09,9.79866667 L10.4067619,9.79866667 L10.4067619,4.67942857 C10.4067619,4.28495238 10.0870476,3.96514286 9.69247619,3.96514286 C9.298,3.96514286 8.97819048,4.28495238 8.97819048,4.67942857 L8.97819048,10.5129524 C8.97819048,10.9074286 9.298,11.2272381 9.69247619,11.2272381 L15.09,11.2272381 C15.4845714,11.2272381 15.8042857,10.9074286 15.8042857,10.5129524 C15.8042857,10.1184762 15.4844762,9.79866667 15.09,9.79866667 Z" id="Shape"></path>
            </g>
            <g id="phone-call-copy" transform="translate(60.000000, 0.000000)">
                <path d="M16.8818868,2.61528302 C15.195283,0.928679245 12.9527358,-9.43396226e-05 10.5676415,0 C10.1767925,0 9.86009434,0.316792453 9.86009434,0.70754717 C9.86009434,1.09830189 10.1768868,1.41509434 10.5676415,1.41509434 C12.5748113,1.415 14.4618868,2.19660377 15.8812264,3.6159434 C17.3006604,5.03528302 18.0822642,6.92245283 18.0821698,8.92971698 C18.0821698,9.3204717 18.3988679,9.63726415 18.789717,9.63726415 C19.1804717,9.63726415 19.4972642,9.3204717 19.4972642,8.92981132 C19.4973585,6.54443396 18.5685849,4.30188679 16.8818868,2.61528302 Z" id="Shape"></path>
                <path d="M13.9713208,8.92981132 C13.9713208,9.32056604 14.2881132,9.63735849 14.6789623,9.63726415 C15.069717,9.63726415 15.3864151,9.3204717 15.3864151,8.92971698 C15.3862264,6.27311321 13.2245283,4.11150943 10.5677358,4.11113208 C10.5676415,4.11113208 10.5677358,4.11113208 10.5676415,4.11113208 C10.1768868,4.11113208 9.86018868,4.42783019 9.86009434,4.81858491 C9.86009434,5.20933962 10.1767925,5.52613208 10.5675472,5.52622642 C12.4442453,5.52650943 13.9711321,7.05330189 13.9713208,8.92981132 Z" id="Shape"></path>
                <path d="M12.4056604,12.5373585 C11.3271698,12.4815094 10.7777358,13.2835849 10.5142453,13.6688679 C10.2935849,13.9914151 10.3762264,14.4316981 10.6987736,14.6523585 C11.0213208,14.8730189 11.4616038,14.7903774 11.6822642,14.4678302 C11.9935849,14.0126415 12.1346226,13.9410377 12.3259434,13.9500943 C12.9383019,14.0220755 15.3500943,15.789434 15.5916038,16.3420755 C15.6521698,16.5048113 15.6499057,16.6643396 15.5849057,16.8583962 C15.3316981,17.6099057 14.9125472,18.1380189 14.3725472,18.385566 C13.8595283,18.6207547 13.230566,18.599434 12.5540566,18.3241509 C10.0279245,17.2945283 7.8209434,15.8576415 5.9945283,14.0533019 C5.99377358,14.0525472 5.99301887,14.0518868 5.99235849,14.0511321 C4.19179245,12.2265094 2.75754717,10.0223585 1.72962264,7.50009434 C1.45424528,6.82301887 1.43292453,6.19396226 1.66811321,5.68103774 C1.91566038,5.14103774 2.44377358,4.72188679 3.19462264,4.46896226 C3.38933962,4.40367925 3.54858491,4.40160377 3.70981132,4.46160377 C4.26443396,4.70396226 6.03169811,7.11566038 6.10301887,7.72113208 C6.11320755,7.91962264 6.04103774,8.06056604 5.58622642,8.37132075 C5.26358491,8.59169811 5.18066038,9.03198113 5.40113208,9.35462264 C5.62150943,9.67726415 6.06169811,9.76009434 6.38443396,9.53971698 C6.76990566,9.27650943 7.57179245,8.72858491 7.51613208,7.64641509 C7.45481132,6.51603774 5.2559434,3.52254717 4.20528302,3.13622642 C3.73801887,2.96207547 3.24650943,2.9590566 2.74386792,3.12773585 C1.61292453,3.50858491 0.796132075,4.18764151 0.381792453,5.09141509 C-0.0200943396,5.96820755 -0.00735849057,6.9854717 0.419056604,8.03377358 C1.51915094,10.7330189 3.05830189,13.0948113 4.99367925,15.0537736 C4.99839623,15.0585849 5.00320755,15.0633019 5.00811321,15.0679245 C6.96566038,16.999717 9.32471698,18.5360377 12.0203774,19.6348113 C12.5601887,19.8543396 13.0917925,19.9642453 13.6001887,19.9642453 C14.0788679,19.9642453 14.5371698,19.8668868 14.9622642,19.6719811 C15.8661321,19.2577358 16.5450943,18.4410377 16.9262264,17.3093396 C17.0945283,16.8076415 17.0917925,16.3163208 16.9189623,15.8512264 C16.5313208,14.7977358 13.5378302,12.5988679 12.4056604,12.5373585 Z" id="Shape"></path>
            </g>
            <g id="mail-copy" transform="translate(90.000000, 3.000000)">
                <path d="M16.4133884,2.67785124 L9.96190083,8.36289256 L3.50900826,2.6777686 C3.25206612,2.45140496 2.86041322,2.47628099 2.63413223,2.73305785 C2.40793388,2.98991736 2.43256198,3.38157025 2.68950413,3.60793388 L9.5522314,9.65413223 C9.66933884,9.75727273 9.81570248,9.80884298 9.96198347,9.80884298 C10.1082645,9.80884298 10.2547107,9.75727273 10.3718182,9.65404959 L17.2331405,3.60785124 C17.4899174,3.38157025 17.5146281,2.98983471 17.2883471,2.73297521 C17.0619008,2.47636364 16.6703306,2.45157025 16.4133884,2.67785124 Z" id="Shape"></path>
                <path d="M18.0628926,0.0437190083 L1.85950413,0.0437190083 C0.834214876,0.0437190083 0,0.87785124 0,1.90322314 L0,11.7380992 C0,12.7634711 0.834214876,13.5976033 1.85950413,13.5976033 L18.0628926,13.5976033 C19.0881818,13.5976033 19.9223967,12.7634711 19.9223967,11.7380992 L19.9223967,1.90322314 C19.9223967,0.877933884 19.0881818,0.0437190083 18.0628926,0.0437190083 Z M18.6827273,11.7380992 C18.6827273,12.0798347 18.4047107,12.3579339 18.0628926,12.3579339 L1.85950413,12.3579339 C1.51768595,12.3579339 1.23966942,12.0798347 1.23966942,11.7380992 L1.23966942,1.90322314 C1.23966942,1.5614876 1.51768595,1.28338843 1.85950413,1.28338843 L18.0628926,1.28338843 C18.4047107,1.28338843 18.6827273,1.5614876 18.6827273,1.90322314 L18.6827273,11.7380992 Z" id="Shape"></path>
            </g>
        </g>
    </g>
</svg>