<svg width="170" height="71" xmlns="http://www.w3.org/2000/svg"><path d="M24 0h5v62h-5V6H13v56H8V6H5.994L2 0h22zM5 64h11V8h5v56h11V8h5v62H0V8h5v56zm43.92-31V12h2.25v18.93h5.19V12h2.25v18.93h5.19V12h2.25v21H48.92zm21.97-21h9.33v2.07h-7.08v7.11h6.51v2.07h-6.51v7.68h7.23V33h-9.48V12zm24.1 7.26l.18-2.76h-.09l-1.05 2.82L86.26 33h-1.5V12h2.25v13.95l-.21 2.7h.12l1.05-2.82L95.77 12h1.47v21h-2.25V19.26zM89.11 6.9c.04.74.245 1.33.615 1.77.37.44.875.66 1.515.66.64 0 1.135-.22 1.485-.66.35-.44.555-1.02.615-1.74l1.92.45c-.16 1.14-.57 2.02-1.23 2.64-.66.62-1.6.93-2.82.93-1.18 0-2.155-.28-2.925-.84-.77-.56-1.215-1.46-1.335-2.7l2.16-.51zm19.42 23.76c-.28.06-.61.1-.99.12-.38.02-.74.03-1.08.03-.78 0-1.495-.15-2.145-.45-.65-.3-1.215-.785-1.695-1.455s-.855-1.53-1.125-2.58-.405-2.325-.405-3.825c0-2.82.525-4.965 1.575-6.435 1.05-1.47 2.475-2.205 4.275-2.205.22 0 .495.01.825.03.33.02.585.05.765.09V11.4h2.25v2.67c.28-.1.63-.16 1.05-.18.42-.02.76-.03 1.02-.03.78 0 1.5.165 2.16.495.66.33 1.23.835 1.71 1.515.48.68.85 1.545 1.11 2.595.26 1.05.39 2.295.39 3.735 0 1.48-.15 2.76-.45 3.84-.3 1.08-.71 1.97-1.23 2.67s-1.135 1.225-1.845 1.575c-.71.35-1.465.525-2.265.525-.18 0-.45-.015-.81-.045-.36-.03-.64-.085-.84-.165v3h-2.25v-2.94zm3.93-14.85c-.22 0-.51.01-.87.03-.36.02-.65.08-.87.18v12.75c.16.04.38.065.66.075.28.01.53.015.75.015 1.12 0 2.03-.545 2.73-1.635.7-1.09 1.05-2.765 1.05-5.025 0-.96-.075-1.83-.225-2.61-.15-.78-.37-1.45-.66-2.01-.29-.56-.65-.995-1.08-1.305a2.474 2.474 0 0 0-1.485-.465zm-5.52 13.05c.18 0 .445-.005.795-.015.35-.01.635-.065.855-.165V15.93c-.2-.04-.44-.07-.72-.09-.28-.02-.53-.03-.75-.03-1.1 0-1.995.55-2.685 1.65-.69 1.1-1.035 2.78-1.035 5.04 0 1.98.305 3.535.915 4.665.61 1.13 1.485 1.695 2.625 1.695zM122.07 12h9.33v2.07h-7.08v7.11h6.51v2.07h-6.51v7.68h7.23V33h-9.48V12zm13.87.21c.64-.18 1.32-.3 2.04-.36s1.43-.09 2.13-.09c.8 0 1.59.09 2.37.27.78.18 1.485.51 2.115.99.63.48 1.14 1.14 1.53 1.98.39.84.585 1.91.585 3.21 0 1.26-.185 2.33-.555 3.21-.37.88-.86 1.595-1.47 2.145s-1.31.95-2.1 1.2-1.605.375-2.445.375h-.39a11.437 11.437 0 0 1-1.155-.06c-.19-.02-.325-.04-.405-.06V33h-2.25V12.21zm4.29 1.62c-.4 0-.785.015-1.155.045s-.665.075-.885.135v8.94c.08.04.205.065.375.075l.525.03c.18.01.355.015.525.015h.375c.56 0 1.1-.07 1.62-.21.52-.14.98-.395 1.38-.765.4-.37.725-.87.975-1.5s.375-1.425.375-2.385c0-.84-.115-1.54-.345-2.1-.23-.56-.53-1.01-.9-1.35-.37-.34-.805-.58-1.305-.72-.5-.14-1.02-.21-1.56-.21zm26.87 5.43l.18-2.76h-.09l-1.05 2.82L158.37 33h-1.5V12h2.25v13.95l-.21 2.7h.12l1.05-2.82 7.8-13.83h1.47v21h-2.25V19.26zM58.61 51.07h-7.44V70h-2.25V49h11.94v21h-2.25V51.07zm15.16 13.05h-5.94L66.15 70h-2.22l6.33-21.33h1.23L77.82 70h-2.34l-1.71-5.88zm-5.34-2.01h4.8l-1.83-6.48-.57-3.15h-.06l-.57 3.21-1.77 6.42zm12.46-12.9c.64-.18 1.32-.3 2.04-.36s1.43-.09 2.13-.09c.8 0 1.59.09 2.37.27.78.18 1.485.51 2.115.99.63.48 1.14 1.14 1.53 1.98.39.84.585 1.91.585 3.21 0 1.26-.185 2.33-.555 3.21-.37.88-.86 1.595-1.47 2.145s-1.31.95-2.1 1.2-1.605.375-2.445.375h-.39a11.437 11.437 0 0 1-1.155-.06c-.19-.02-.325-.04-.405-.06V70h-2.25V49.21zm4.29 1.62c-.4 0-.785.015-1.155.045s-.665.075-.885.135v8.94c.08.04.205.065.375.075l.525.03c.18.01.355.015.525.015h.375c.56 0 1.1-.07 1.62-.21.52-.14.98-.395 1.38-.765.4-.37.725-.87.975-1.5s.375-1.425.375-2.385c0-.84-.115-1.54-.345-2.1-.23-.56-.53-1.01-.9-1.35-.37-.34-.805-.58-1.305-.72-.5-.14-1.02-.21-1.56-.21zm20.95.24h-5.16V70h-2.25V51.07h-5.16V49h12.57v2.07zm13.33 9.24h-7.74V70h-2.25V49h2.25v9.24h7.74V49h2.25v21h-2.25v-9.69zM126.55 49h9.33v2.07h-7.08v7.11h6.51v2.07h-6.51v7.68h7.23V70h-9.48V49zm13.87.21c.64-.18 1.32-.3 2.04-.36s1.43-.09 2.13-.09c.8 0 1.59.09 2.37.27.78.18 1.485.51 2.115.99.63.48 1.14 1.14 1.53 1.98.39.84.585 1.91.585 3.21 0 1.26-.185 2.33-.555 3.21-.37.88-.86 1.595-1.47 2.145s-1.31.95-2.1 1.2-1.605.375-2.445.375h-.39a11.437 11.437 0 0 1-1.155-.06c-.19-.02-.325-.04-.405-.06V70h-2.25V49.21zm4.29 1.62c-.4 0-.785.015-1.155.045s-.665.075-.885.135v8.94c.08.04.205.065.375.075l.525.03c.18.01.355.015.525.015h.375c.56 0 1.1-.07 1.62-.21.52-.14.98-.395 1.38-.765.4-.37.725-.87.975-1.5s.375-1.425.375-2.385c0-.84-.115-1.54-.345-2.1-.23-.56-.53-1.01-.9-1.35-.37-.34-.805-.58-1.305-.72-.5-.14-1.02-.21-1.56-.21zM167.52 49h2.25v21h-2.25V49zm-12.57 0h2.25v8.16c.18-.04.48-.095.9-.165.42-.07.83-.105 1.23-.105.78 0 1.525.09 2.235.27.71.18 1.335.505 1.875.975s.97 1.115 1.29 1.935c.32.82.48 1.86.48 3.12 0 2.44-.565 4.225-1.695 5.355-1.13 1.13-2.705 1.695-4.725 1.695-.46 0-1.055-.025-1.785-.075-.73-.05-1.415-.165-2.055-.345V49zM159 68.17c1.2 0 2.14-.39 2.82-1.17.68-.78 1.02-1.98 1.02-3.6 0-.88-.1-1.605-.3-2.175-.2-.57-.475-1.025-.825-1.365a2.811 2.811 0 0 0-1.245-.705c-.48-.13-1-.195-1.56-.195-.28 0-.595.03-.945.09s-.605.12-.765.18v8.73c.4.14 1 .21 1.8.21z" fill="#FFF" fill-rule="evenodd"/></svg>