<svg width="117" height="142" xmlns="http://www.w3.org/2000/svg"><defs><filter x="-57.7%" y="-32%" width="215.5%" height="184.5%" filterUnits="objectBoundingBox" id="a"><feOffset dy="10" in="SourceAlpha" result="shadowOffsetOuter1"/><feGaussianBlur stdDeviation="12" in="shadowOffsetOuter1" result="shadowBlurOuter1"/><feColorMatrix values="0 0 0 0 0 0 0 0 0 0 0 0 0 0 0 0 0 0 0.1 0" in="shadowBlurOuter1" result="shadowMatrixOuter1"/><feMerge><feMergeNode in="shadowMatrixOuter1"/><feMergeNode in="SourceGraphic"/></feMerge></filter></defs><g filter="url(#a)" transform="translate(23 13)" fill="none" fill-rule="evenodd"><path d="M35.5 0C15.924 0 0 16.77 0 38.907c0 13.205 7.47 26.505 18.826 41.038C26.825 88.922 33.412 96.216 35.5 97c2.085-.784 8.674-8.078 15.598-17.055C63.53 65.412 71 52.112 71 38.907 71 16.77 55.074 0 35.5 0z" fill="#313131" fill-rule="nonzero"/><path d="M41.666 22.003h.015v3.25h-.015v30.404h-2.709V25.254h-5.96v30.403H30.29V25.254h-1.1l-2.168-3.25h3.266l2.71-.004 5.959.003L41.666 22zM28.663 56.746h5.96V26.343h2.709v30.403h5.96V26.343H46V60h-2.709l-5.96-.003-2.708.003-5.96-.003-2.708.003-.02-.003v-3.25h.02V26.342h2.708v30.403z" fill="#FFF"/></g></svg>