<?xml version="1.0" encoding="UTF-8"?>
<svg width="76px" height="74px" viewBox="0 0 76 74" version="1.1" xmlns="http://www.w3.org/2000/svg" xmlns:xlink="http://www.w3.org/1999/xlink">
    <!-- Generator: Sketch 48.2 (47327) - http://www.bohemiancoding.com/sketch -->
    <title>Group 5</title>
    <desc>Created with Sketch.</desc>
    <defs></defs>
    <g id="Welcome" stroke="none" stroke-width="1" fill="none" fill-rule="evenodd">
        <g id="Group-5" fill-rule="nonzero">
            <g id="Group-4" opacity="0.600000024" fill="#000000">
                <g id="noun_444381_cc" transform="translate(43.000000, 0.000000)">
                    <g id="Group" transform="translate(1.000000, 0.000000)">
                        <path d="M16,0 C7.163,0 0,7.163 0,16 C0,24.837 7.163,32 16,32 C24.837,32 32,24.837 32,16 C32,7.163 24.837,0 16,0 Z M16,31 C7.729,31 1,24.271 1,16 C1,7.729 7.729,1 16,1 C24.271,1 31,7.729 31,16 C31,24.271 24.271,31 16,31 Z" id="Shape"></path>
                        <polygon id="Shape" points="23.062 15.478 23.049 15.478 16.954 9.383 16.247 10.09 21.635 15.478 7.595 15.478 7.595 16.478 21.744 16.478 16.247 21.975 16.954 22.682 23.604 16.033 23.062 15.491"></polygon>
                    </g>
                    <g id="Group">
                        <path d="M5.318,5.06 C0.425,10.157 -0.413,18.152 3.332,24.148 C6.557,29.312 12.629,32.208 18.668,31.665 C26.766,30.937 32.825,24.137 33,16.096 C32.696,2.187 15.157,-5.19 5.318,5.06 Z M18.725,31.146 C9.787,32.319 1.94,24.952 1.935,16.096 C1.931,8.514 7.68,1.797 15.24,0.805 C24.305,-0.385 31.836,7.013 32.03,15.856 C31.863,23.448 26.397,30.14 18.725,31.146 Z" id="Shape"></path>
                        <path d="M18.009,9.906 C17.823,9.72 16.876,9.645 17.122,9.891 C18.084,10.853 19.046,11.815 20.008,12.776 C20.382,13.15 22.313,14.726 22.976,15.53 C18.192,15.53 13.407,15.53 8.623,15.53 C7.269,15.53 8.144,16.378 9.021,16.378 C13.649,16.378 18.277,16.378 22.905,16.378 C22.208,17.163 20.493,18.567 20.166,18.894 C19.147,19.912 18.129,20.931 17.11,21.949 C16.912,22.147 17.811,22.495 18.019,22.287 C20.056,20.25 22.094,18.214 24.131,16.177 C24.179,16.129 24.165,16.061 24.12,16.015 C22.084,13.979 20.046,11.942 18.009,9.906 Z" id="Shape"></path>
                    </g>
                    <g id="Group" transform="translate(1.000000, 0.000000)">
                        <path d="M16,0 C7.163,0 0,7.163 0,16 C0,24.837 7.163,32 16,32 C24.837,32 32,24.837 32,16 C32,7.163 24.837,0 16,0 Z M16,30 C8.28,30 2,23.72 2,16 C2,8.28 8.28,2 16,2 C23.72,2 30,8.28 30,16 C30,23.72 23.72,30 16,30 Z" id="Shape"></path>
                        <polygon id="Shape" points="15.894 10.444 20.428 14.978 7.595 14.978 7.595 16.978 20.537 16.978 15.894 21.622 17.308 23.036 24.311 16.033 17.308 9.03"></polygon>
                    </g>
                    <g id="Group" transform="translate(1.000000, 0.000000)">
                        <path d="M16,0 C7.163,0 0,7.163 0,16 C0,24.837 7.163,32 16,32 C24.837,32 32,24.837 32,16 C32,7.163 24.837,0 16,0 Z M16,31.5 C7.453,31.5 0.5,24.547 0.5,16 C0.5,7.453 7.453,0.5 16,0.5 C24.547,0.5 31.5,7.453 31.5,16 C31.5,24.547 24.547,31.5 16,31.5 Z" id="Shape"></path>
                        <polygon id="Shape" points="23.062 15.844 23.062 15.728 22.945 15.728 16.777 9.56 16.424 9.914 22.238 15.728 7.595 15.728 7.595 16.228 22.348 16.228 16.424 22.152 16.777 22.506 23.055 16.228 23.062 16.228 23.062 16.221 23.25 16.033"></polygon>
                    </g>
                </g>
                <g id="noun_444381_cc-copy" transform="translate(16.500000, 16.000000) scale(-1, 1) translate(-16.500000, -16.000000) ">
                    <g id="Group" transform="translate(1.000000, 0.000000)">
                        <path d="M16,0 C7.163,0 0,7.163 0,16 C0,24.837 7.163,32 16,32 C24.837,32 32,24.837 32,16 C32,7.163 24.837,0 16,0 Z M16,31 C7.729,31 1,24.271 1,16 C1,7.729 7.729,1 16,1 C24.271,1 31,7.729 31,16 C31,24.271 24.271,31 16,31 Z" id="Shape"></path>
                        <polygon id="Shape" points="23.062 15.478 23.049 15.478 16.954 9.383 16.247 10.09 21.635 15.478 7.595 15.478 7.595 16.478 21.744 16.478 16.247 21.975 16.954 22.682 23.604 16.033 23.062 15.491"></polygon>
                    </g>
                    <g id="Group">
                        <path d="M5.318,5.06 C0.425,10.157 -0.413,18.152 3.332,24.148 C6.557,29.312 12.629,32.208 18.668,31.665 C26.766,30.937 32.825,24.137 33,16.096 C32.696,2.187 15.157,-5.19 5.318,5.06 Z M18.725,31.146 C9.787,32.319 1.94,24.952 1.935,16.096 C1.931,8.514 7.68,1.797 15.24,0.805 C24.305,-0.385 31.836,7.013 32.03,15.856 C31.863,23.448 26.397,30.14 18.725,31.146 Z" id="Shape"></path>
                        <path d="M18.009,9.906 C17.823,9.72 16.876,9.645 17.122,9.891 C18.084,10.853 19.046,11.815 20.008,12.776 C20.382,13.15 22.313,14.726 22.976,15.53 C18.192,15.53 13.407,15.53 8.623,15.53 C7.269,15.53 8.144,16.378 9.021,16.378 C13.649,16.378 18.277,16.378 22.905,16.378 C22.208,17.163 20.493,18.567 20.166,18.894 C19.147,19.912 18.129,20.931 17.11,21.949 C16.912,22.147 17.811,22.495 18.019,22.287 C20.056,20.25 22.094,18.214 24.131,16.177 C24.179,16.129 24.165,16.061 24.12,16.015 C22.084,13.979 20.046,11.942 18.009,9.906 Z" id="Shape"></path>
                    </g>
                    <g id="Group" transform="translate(1.000000, 0.000000)">
                        <path d="M16,0 C7.163,0 0,7.163 0,16 C0,24.837 7.163,32 16,32 C24.837,32 32,24.837 32,16 C32,7.163 24.837,0 16,0 Z M16,30 C8.28,30 2,23.72 2,16 C2,8.28 8.28,2 16,2 C23.72,2 30,8.28 30,16 C30,23.72 23.72,30 16,30 Z" id="Shape"></path>
                        <polygon id="Shape" points="15.894 10.444 20.428 14.978 7.595 14.978 7.595 16.978 20.537 16.978 15.894 21.622 17.308 23.036 24.311 16.033 17.308 9.03"></polygon>
                    </g>
                    <g id="Group" transform="translate(1.000000, 0.000000)">
                        <path d="M16,0 C7.163,0 0,7.163 0,16 C0,24.837 7.163,32 16,32 C24.837,32 32,24.837 32,16 C32,7.163 24.837,0 16,0 Z M16,31.5 C7.453,31.5 0.5,24.547 0.5,16 C0.5,7.453 7.453,0.5 16,0.5 C24.547,0.5 31.5,7.453 31.5,16 C31.5,24.547 24.547,31.5 16,31.5 Z" id="Shape"></path>
                        <polygon id="Shape" points="23.062 15.844 23.062 15.728 22.945 15.728 16.777 9.56 16.424 9.914 22.238 15.728 7.595 15.728 7.595 16.228 22.348 16.228 16.424 22.152 16.777 22.506 23.055 16.228 23.062 16.228 23.062 16.221 23.25 16.033"></polygon>
                    </g>
                </g>
            </g>
            <g id="Group-4-Copy" transform="translate(0.000000, 42.000000)" fill="#E6CB69">
                <g id="noun_444381_cc" transform="translate(43.000000, 0.000000)">
                    <g id="Group" transform="translate(1.000000, 0.000000)">
                        <path d="M16,0 C7.163,0 0,7.163 0,16 C0,24.837 7.163,32 16,32 C24.837,32 32,24.837 32,16 C32,7.163 24.837,0 16,0 Z M16,31 C7.729,31 1,24.271 1,16 C1,7.729 7.729,1 16,1 C24.271,1 31,7.729 31,16 C31,24.271 24.271,31 16,31 Z" id="Shape"></path>
                        <polygon id="Shape" points="23.062 15.478 23.049 15.478 16.954 9.383 16.247 10.09 21.635 15.478 7.595 15.478 7.595 16.478 21.744 16.478 16.247 21.975 16.954 22.682 23.604 16.033 23.062 15.491"></polygon>
                    </g>
                    <g id="Group">
                        <path d="M5.318,5.06 C0.425,10.157 -0.413,18.152 3.332,24.148 C6.557,29.312 12.629,32.208 18.668,31.665 C26.766,30.937 32.825,24.137 33,16.096 C32.696,2.187 15.157,-5.19 5.318,5.06 Z M18.725,31.146 C9.787,32.319 1.94,24.952 1.935,16.096 C1.931,8.514 7.68,1.797 15.24,0.805 C24.305,-0.385 31.836,7.013 32.03,15.856 C31.863,23.448 26.397,30.14 18.725,31.146 Z" id="Shape"></path>
                        <path d="M18.009,9.906 C17.823,9.72 16.876,9.645 17.122,9.891 C18.084,10.853 19.046,11.815 20.008,12.776 C20.382,13.15 22.313,14.726 22.976,15.53 C18.192,15.53 13.407,15.53 8.623,15.53 C7.269,15.53 8.144,16.378 9.021,16.378 C13.649,16.378 18.277,16.378 22.905,16.378 C22.208,17.163 20.493,18.567 20.166,18.894 C19.147,19.912 18.129,20.931 17.11,21.949 C16.912,22.147 17.811,22.495 18.019,22.287 C20.056,20.25 22.094,18.214 24.131,16.177 C24.179,16.129 24.165,16.061 24.12,16.015 C22.084,13.979 20.046,11.942 18.009,9.906 Z" id="Shape"></path>
                    </g>
                    <g id="Group" transform="translate(1.000000, 0.000000)">
                        <path d="M16,0 C7.163,0 0,7.163 0,16 C0,24.837 7.163,32 16,32 C24.837,32 32,24.837 32,16 C32,7.163 24.837,0 16,0 Z M16,30 C8.28,30 2,23.72 2,16 C2,8.28 8.28,2 16,2 C23.72,2 30,8.28 30,16 C30,23.72 23.72,30 16,30 Z" id="Shape"></path>
                        <polygon id="Shape" points="15.894 10.444 20.428 14.978 7.595 14.978 7.595 16.978 20.537 16.978 15.894 21.622 17.308 23.036 24.311 16.033 17.308 9.03"></polygon>
                    </g>
                    <g id="Group" transform="translate(1.000000, 0.000000)">
                        <path d="M16,0 C7.163,0 0,7.163 0,16 C0,24.837 7.163,32 16,32 C24.837,32 32,24.837 32,16 C32,7.163 24.837,0 16,0 Z M16,31.5 C7.453,31.5 0.5,24.547 0.5,16 C0.5,7.453 7.453,0.5 16,0.5 C24.547,0.5 31.5,7.453 31.5,16 C31.5,24.547 24.547,31.5 16,31.5 Z" id="Shape"></path>
                        <polygon id="Shape" points="23.062 15.844 23.062 15.728 22.945 15.728 16.777 9.56 16.424 9.914 22.238 15.728 7.595 15.728 7.595 16.228 22.348 16.228 16.424 22.152 16.777 22.506 23.055 16.228 23.062 16.228 23.062 16.221 23.25 16.033"></polygon>
                    </g>
                </g>
                <g id="noun_444381_cc-copy" transform="translate(16.500000, 16.000000) scale(-1, 1) translate(-16.500000, -16.000000) ">
                    <g id="Group" transform="translate(1.000000, 0.000000)">
                        <path d="M16,0 C7.163,0 0,7.163 0,16 C0,24.837 7.163,32 16,32 C24.837,32 32,24.837 32,16 C32,7.163 24.837,0 16,0 Z M16,31 C7.729,31 1,24.271 1,16 C1,7.729 7.729,1 16,1 C24.271,1 31,7.729 31,16 C31,24.271 24.271,31 16,31 Z" id="Shape"></path>
                        <polygon id="Shape" points="23.062 15.478 23.049 15.478 16.954 9.383 16.247 10.09 21.635 15.478 7.595 15.478 7.595 16.478 21.744 16.478 16.247 21.975 16.954 22.682 23.604 16.033 23.062 15.491"></polygon>
                    </g>
                    <g id="Group">
                        <path d="M5.318,5.06 C0.425,10.157 -0.413,18.152 3.332,24.148 C6.557,29.312 12.629,32.208 18.668,31.665 C26.766,30.937 32.825,24.137 33,16.096 C32.696,2.187 15.157,-5.19 5.318,5.06 Z M18.725,31.146 C9.787,32.319 1.94,24.952 1.935,16.096 C1.931,8.514 7.68,1.797 15.24,0.805 C24.305,-0.385 31.836,7.013 32.03,15.856 C31.863,23.448 26.397,30.14 18.725,31.146 Z" id="Shape"></path>
                        <path d="M18.009,9.906 C17.823,9.72 16.876,9.645 17.122,9.891 C18.084,10.853 19.046,11.815 20.008,12.776 C20.382,13.15 22.313,14.726 22.976,15.53 C18.192,15.53 13.407,15.53 8.623,15.53 C7.269,15.53 8.144,16.378 9.021,16.378 C13.649,16.378 18.277,16.378 22.905,16.378 C22.208,17.163 20.493,18.567 20.166,18.894 C19.147,19.912 18.129,20.931 17.11,21.949 C16.912,22.147 17.811,22.495 18.019,22.287 C20.056,20.25 22.094,18.214 24.131,16.177 C24.179,16.129 24.165,16.061 24.12,16.015 C22.084,13.979 20.046,11.942 18.009,9.906 Z" id="Shape"></path>
                    </g>
                    <g id="Group" transform="translate(1.000000, 0.000000)">
                        <path d="M16,0 C7.163,0 0,7.163 0,16 C0,24.837 7.163,32 16,32 C24.837,32 32,24.837 32,16 C32,7.163 24.837,0 16,0 Z M16,30 C8.28,30 2,23.72 2,16 C2,8.28 8.28,2 16,2 C23.72,2 30,8.28 30,16 C30,23.72 23.72,30 16,30 Z" id="Shape"></path>
                        <polygon id="Shape" points="15.894 10.444 20.428 14.978 7.595 14.978 7.595 16.978 20.537 16.978 15.894 21.622 17.308 23.036 24.311 16.033 17.308 9.03"></polygon>
                    </g>
                    <g id="Group" transform="translate(1.000000, 0.000000)">
                        <path d="M16,0 C7.163,0 0,7.163 0,16 C0,24.837 7.163,32 16,32 C24.837,32 32,24.837 32,16 C32,7.163 24.837,0 16,0 Z M16,31.5 C7.453,31.5 0.5,24.547 0.5,16 C0.5,7.453 7.453,0.5 16,0.5 C24.547,0.5 31.5,7.453 31.5,16 C31.5,24.547 24.547,31.5 16,31.5 Z" id="Shape"></path>
                        <polygon id="Shape" points="23.062 15.844 23.062 15.728 22.945 15.728 16.777 9.56 16.424 9.914 22.238 15.728 7.595 15.728 7.595 16.228 22.348 16.228 16.424 22.152 16.777 22.506 23.055 16.228 23.062 16.228 23.062 16.221 23.25 16.033"></polygon>
                    </g>
                </g>
            </g>
        </g>
    </g>
</svg>